<svg version="1.1" xmlns="http://www.w3.org/2000/svg" xmlns:xlink="http://www.w3.org/1999/xlink" width="20" height="16" viewBox="0,0,256,204.79688"><g fill="#8b0000" fill-rule="nonzero" stroke="none" stroke-width="1" stroke-linecap="butt" stroke-linejoin="miter" stroke-miterlimit="10" stroke-dasharray="" stroke-dashoffset="0" font-family="none" font-weight="none" font-size="none" text-anchor="none" style="mix-blend-mode: normal"><g transform="translate(0,-0.00156) scale(0.4,0.4)"><path d="M48,0c-26.5,0 -48,21.5 -48,48v320c0,26.5 21.5,48 48,48h16c0,53 43,96 96,96c53,0 96,-43 96,-96h128c0,53 43,96 96,96c53,0 96,-43 96,-96h32c17.7,0 32,-14.3 32,-32c0,-17.7 -14.3,-32 -32,-32v-64v-32v-18.7c0,-17 -6.7,-33.3 -18.7,-45.3l-77.3,-77.3c-12,-12 -28.3,-18.7 -45.3,-18.7h-50.7v-48c0,-26.5 -21.5,-48 -48,-48zM416,160h50.7l77.3,77.3v18.7h-128zM112,416c0,-26.50967 21.49033,-48 48,-48c26.50967,0 48,21.49033 48,48c0,26.50967 -21.49033,48 -48,48c-26.50967,0 -48,-21.49033 -48,-48zM480,368c26.50967,0 48,21.49033 48,48c0,26.50967 -21.49033,48 -48,48c-26.50967,0 -48,-21.49033 -48,-48c0,-26.50967 21.49033,-48 48,-48z"></path></g></g></svg>